<svg xmlns="http://www.w3.org/2000/svg" width="34" height="34" viewBox="0 0 34 34">
  <g id="Group_307666" data-name="Group 307666" transform="translate(1.053 -751)">
    <g id="Group_307414" data-name="Group 307414" transform="translate(0 752)">
      <g id="Ellipse_13105" data-name="Ellipse 13105" transform="translate(-0.053)" fill="#163ee5" stroke="#fff" stroke-width="1">
        <circle cx="16" cy="16" r="16" stroke="none"/>
        <circle cx="16" cy="16" r="16.5" fill="none"/>
      </g>
    </g>
    <g id="Group_308002" data-name="Group 308002" transform="translate(6.643 760.899)">
      <path id="Path_88503" data-name="Path 88503" d="M74.413,84.61H75.66a.829.829,0,1,0,0-1.658H74.413a2.493,2.493,0,1,1,0-4.987h2.695l-.941.941a.829.829,0,1,0,1.172,1.172l2.356-2.356,0,0,.024-.025.007-.009.019-.022.006-.007.019-.025h0l0,0,.02-.029h0a.821.821,0,0,0,.134-.377v-.006c0-.012,0-.023,0-.035s0-.028,0-.041V77.1a.338.338,0,0,0,0-.035v-.006h0a.831.831,0,0,0-.135-.377l-.02-.029,0,0-.02-.026-.005-.007-.02-.024-.006-.007-.028-.029-2.356-2.36a.83.83,0,0,0-1.173,1.175l.941.941H74.412a4.152,4.152,0,1,0,0,8.3Z" transform="translate(-70.26 -73.95)" fill="#fff" stroke="#1a0e81" stroke-width="0.2"/>
      <path id="Path_88504" data-name="Path 88504" d="M327.693,148.447a.829.829,0,1,0,0,1.658h1.247a2.493,2.493,0,1,1,0,4.987h-2.695l.941-.941a.829.829,0,0,0-1.172-1.172l-2.356,2.356-.028.029-.006.007-.02.024-.005.007-.02.026,0,0-.02.029h0a.83.83,0,0,0-.135.377v.006c0,.012,0,.023,0,.035s0,.028,0,.041v.042a.334.334,0,0,0,0,.035V156a.82.82,0,0,0,.134.377l.02.029,0,.005.019.025.006.008.019.022.007.009.024.025,0,0,2.356,2.357h0a.829.829,0,0,0,1.172-1.173l-.941-.941h2.695a4.152,4.152,0,1,0,0-8.3Z" transform="translate(-315.092 -145.847)" fill="#fff" stroke="#1a0e81" stroke-width="0.2"/>
    </g>
  </g>
</svg>
